# xmcd CD database file
#
# Track frame offsets:
#	150
#	36101
#	63707
#	94185
#	125266
#	157344
#	201631
#
# Disc length: 3164 seconds
#
# Revision: 2
# Processed by: cddbd v1.5.2PL0 Copyright (c) Steve Scherf et al.
# Submitted via: CDex 1.70beta2
#
DISCID=690c5a07
DTITLE=Eric Clapton - the dance of the bell Disc2
DYEAR=1999
DGENRE=Rock
TTITLE0=Gin House
TTITLE1=Cocaine
TTITLE2=Wonderful Tonight
TTITLE3=Badge
TTITLE4=Have You Ever Loved a Woman
TTITLE5=Layla
TTITLE6=Sunshine of Your Love
EXTD=YEAR: 1999
EXTT0=
EXTT1=
EXTT2=
EXTT3=
EXTT4=
EXTT5=
EXTT6=
PLAYORDER=
